<svg width="16" height="16" viewBox="0 0 16 16" fill="none" xmlns="http://www.w3.org/2000/svg">
<path d="M4.00002 2.4C3.57568 2.4 3.16871 2.56857 2.86865 2.86863C2.5686 3.16869 2.40002 3.57566 2.40002 4V12C2.40002 12.4243 2.5686 12.8313 2.86865 13.1314C3.16871 13.4314 3.57568 13.6 4.00002 13.6H7.37602L7.54562 12.924C7.55602 12.8824 7.56722 12.8408 7.58002 12.8H4.00002C3.78785 12.8 3.58437 12.7157 3.43434 12.5657C3.28431 12.4157 3.20002 12.2122 3.20002 12V4C3.20002 3.78783 3.28431 3.58435 3.43434 3.43432C3.58437 3.28429 3.78785 3.2 4.00002 3.2H12C12.2122 3.2 12.4157 3.28429 12.5657 3.43432C12.7157 3.58435 12.8 3.78783 12.8 4V7.3856C13.056 7.276 13.3272 7.2152 13.6 7.2024V4C13.6 3.57566 13.4315 3.16869 13.1314 2.86863C12.8313 2.56857 12.4244 2.4 12 2.4H4.00002ZM7.60002 11.2H8.75442L9.55442 10.4H7.60002C7.49394 10.4 7.3922 10.4421 7.31718 10.5172C7.24217 10.5922 7.20002 10.6939 7.20002 10.8C7.20002 10.9061 7.24217 11.0078 7.31718 11.0828C7.3922 11.1579 7.49394 11.2 7.60002 11.2ZM6.00002 5.8C6.00002 5.95913 5.93681 6.11174 5.82429 6.22427C5.71177 6.33679 5.55915 6.4 5.40002 6.4C5.24089 6.4 5.08828 6.33679 4.97576 6.22427C4.86324 6.11174 4.80002 5.95913 4.80002 5.8C4.80002 5.64087 4.86324 5.48826 4.97576 5.37574C5.08828 5.26322 5.24089 5.2 5.40002 5.2C5.55915 5.2 5.71177 5.26322 5.82429 5.37574C5.93681 5.48826 6.00002 5.64087 6.00002 5.8ZM5.40002 8.8C5.55915 8.8 5.71177 8.73679 5.82429 8.62427C5.93681 8.51174 6.00002 8.35913 6.00002 8.2C6.00002 8.04087 5.93681 7.88826 5.82429 7.77574C5.71177 7.66322 5.55915 7.6 5.40002 7.6C5.24089 7.6 5.08828 7.66322 4.97576 7.77574C4.86324 7.88826 4.80002 8.04087 4.80002 8.2C4.80002 8.35913 4.86324 8.51174 4.97576 8.62427C5.08828 8.73679 5.24089 8.8 5.40002 8.8ZM5.40002 11.2C5.55915 11.2 5.71177 11.1368 5.82429 11.0243C5.93681 10.9117 6.00002 10.7591 6.00002 10.6C6.00002 10.4409 5.93681 10.2883 5.82429 10.1757C5.71177 10.0632 5.55915 10 5.40002 10C5.24089 10 5.08828 10.0632 4.97576 10.1757C4.86324 10.2883 4.80002 10.4409 4.80002 10.6C4.80002 10.7591 4.86324 10.9117 4.97576 11.0243C5.08828 11.1368 5.24089 11.2 5.40002 11.2ZM7.60002 5.6C7.49394 5.6 7.3922 5.64214 7.31718 5.71716C7.24217 5.79217 7.20002 5.89391 7.20002 6C7.20002 6.10609 7.24217 6.20783 7.31718 6.28284C7.3922 6.35786 7.49394 6.4 7.60002 6.4H10.8C10.9061 6.4 11.0079 6.35786 11.0829 6.28284C11.1579 6.20783 11.2 6.10609 11.2 6C11.2 5.89391 11.1579 5.79217 11.0829 5.71716C11.0079 5.64214 10.9061 5.6 10.8 5.6H7.60002ZM7.60002 8C7.49394 8 7.3922 8.04214 7.31718 8.11716C7.24217 8.19217 7.20002 8.29391 7.20002 8.4C7.20002 8.50609 7.24217 8.60783 7.31718 8.68284C7.3922 8.75786 7.49394 8.8 7.60002 8.8H10.8C10.9061 8.8 11.0079 8.75786 11.0829 8.68284C11.1579 8.60783 11.2 8.50609 11.2 8.4C11.2 8.29391 11.1579 8.19217 11.0829 8.11716C11.0079 8.04214 10.9061 8 10.8 8H7.60002ZM8.78402 12.3016L12.648 8.4376C12.787 8.29872 12.952 8.18857 13.1336 8.11344C13.3151 8.03832 13.5097 7.99969 13.7062 7.99976C13.9027 7.99984 14.0972 8.03861 14.2787 8.11387C14.4602 8.18914 14.6251 8.29941 14.764 8.4384C14.9029 8.57739 15.0131 8.74238 15.0882 8.92394C15.1633 9.1055 15.2019 9.30008 15.2019 9.49657C15.2018 9.69306 15.163 9.88761 15.0878 10.0691C15.0125 10.2506 14.9022 10.4155 14.7632 10.5544L10.8992 14.4176C10.6741 14.6428 10.3921 14.8026 10.0832 14.88L8.88482 15.1792C8.76566 15.2089 8.64085 15.2073 8.5225 15.1745C8.40416 15.1417 8.2963 15.0788 8.20943 14.992C8.12255 14.9052 8.0596 14.7974 8.02669 14.6791C7.99378 14.5608 7.99204 14.436 8.02163 14.3168L8.32162 13.1184C8.39836 12.8093 8.55827 12.5271 8.78402 12.3024V12.3016Z" fill="black" fill-opacity="0.8"/>
</svg>
