<svg width="24" height="24" viewBox="0 0 24 24" fill="none" xmlns="http://www.w3.org/2000/svg">
<path d="M20.026 17.001C17.264 21.785 11.147 23.424 6.363 20.662C5.07668 19.9212 3.97212 18.9024 3.13 17.68C3.06474 17.5854 3.02211 17.477 3.0054 17.3633C2.98869 17.2495 2.99835 17.1335 3.03363 17.0241C3.0689 16.9147 3.12885 16.8148 3.20885 16.7323C3.28885 16.6497 3.38675 16.5867 3.495 16.548C7.262 15.2 9.28 13.638 10.451 11.402C11.683 9.04899 12.002 6.47199 11.14 2.93899C11.1122 2.82527 11.1114 2.70663 11.1377 2.59256C11.164 2.47848 11.2166 2.37214 11.2913 2.28204C11.3661 2.19195 11.4608 2.1206 11.5681 2.0737C11.6754 2.02681 11.7921 2.00567 11.909 2.01199C13.4786 2.09647 15.0058 2.5512 16.366 3.33899C21.15 6.10099 22.789 12.218 20.026 17.001ZM11.778 12.098C10.528 14.487 8.468 16.198 4.961 17.597C5.57628 18.3001 6.30338 18.8967 7.113 19.363C9.06418 20.4648 11.3715 20.7519 13.5331 20.1616C15.6948 19.5714 17.536 18.1516 18.6565 16.2111C19.7769 14.2705 20.086 11.9661 19.5164 9.79886C18.9469 7.63165 17.5448 5.77693 15.615 4.63799C14.7513 4.13808 13.8061 3.79448 12.823 3.62299C13.47 7.00699 13.053 9.66599 11.778 12.098Z" fill="white"/>
</svg>
