<svg width="16" height="16" viewBox="0 0 16 16" fill="none" xmlns="http://www.w3.org/2000/svg">
<path d="M4.80002 5.2C4.80002 5.09391 4.84217 4.99217 4.91718 4.91716C4.9922 4.84214 5.09394 4.8 5.20002 4.8H10.8C10.9061 4.8 11.0079 4.84214 11.0829 4.91716C11.1579 4.99217 11.2 5.09391 11.2 5.2C11.2 5.30609 11.1579 5.40783 11.0829 5.48284C11.0079 5.55786 10.9061 5.6 10.8 5.6H5.20002C5.09394 5.6 4.9922 5.55786 4.91718 5.48284C4.84217 5.40783 4.80002 5.30609 4.80002 5.2ZM5.20002 7.2C5.09394 7.2 4.9922 7.24214 4.91718 7.31716C4.84217 7.39217 4.80002 7.49391 4.80002 7.6C4.80002 7.70609 4.84217 7.80783 4.91718 7.88284C4.9922 7.95786 5.09394 8 5.20002 8H8.40002C8.50611 8 8.60785 7.95786 8.68287 7.88284C8.75788 7.80783 8.80002 7.70609 8.80002 7.6C8.80002 7.49391 8.75788 7.39217 8.68287 7.31716C8.60785 7.24214 8.50611 7.2 8.40002 7.2H5.20002ZM4.80002 10C4.80002 9.89391 4.84217 9.79217 4.91718 9.71716C4.9922 9.64214 5.09394 9.6 5.20002 9.6H10.8C10.9061 9.6 11.0079 9.64214 11.0829 9.71716C11.1579 9.79217 11.2 9.89391 11.2 10C11.2 10.1061 11.1579 10.2078 11.0829 10.2828C11.0079 10.3579 10.9061 10.4 10.8 10.4H5.20002C5.09394 10.4 4.9922 10.3579 4.91718 10.2828C4.84217 10.2078 4.80002 10.1061 4.80002 10ZM11.6 2.4C12.1305 2.4 12.6392 2.61071 13.0142 2.98579C13.3893 3.36086 13.6 3.86957 13.6 4.4V11.6C13.6 11.6672 13.5968 11.7344 13.5904 11.8C13.2858 11.8011 12.9865 11.8799 12.7208 12.0288C12.772 11.896 12.8 11.7512 12.8 11.6V4.4C12.8 4.08174 12.6736 3.77652 12.4486 3.55147C12.2235 3.32643 11.9183 3.2 11.6 3.2H4.40002C4.08176 3.2 3.77654 3.32643 3.5515 3.55147C3.32645 3.77652 3.20002 4.08174 3.20002 4.4V11.6C3.20002 11.9183 3.32645 12.2235 3.5515 12.4485C3.77654 12.6736 4.08176 12.8 4.40002 12.8H5.58722C5.46371 13.0486 5.39963 13.3224 5.40002 13.6H4.40002C3.86959 13.6 3.36088 13.3893 2.98581 13.0142C2.61074 12.6391 2.40002 12.1304 2.40002 11.6V4.4C2.40002 3.86957 2.61074 3.36086 2.98581 2.98579C3.36088 2.61071 3.86959 2.4 4.40002 2.4H11.6ZM8.20002 13.6C8.20002 13.8652 8.09467 14.1196 7.90713 14.3071C7.71959 14.4946 7.46524 14.6 7.20002 14.6C6.93481 14.6 6.68045 14.4946 6.49292 14.3071C6.30538 14.1196 6.20002 13.8652 6.20002 13.6C6.20002 13.3348 6.30538 13.0804 6.49292 12.8929C6.68045 12.7054 6.93481 12.6 7.20002 12.6C7.46524 12.6 7.71959 12.7054 7.90713 12.8929C8.09467 13.0804 8.20002 13.3348 8.20002 13.6ZM10.4 14.6C10.6652 14.6 10.9196 14.4946 11.1071 14.3071C11.2947 14.1196 11.4 13.8652 11.4 13.6C11.4 13.3348 11.2947 13.0804 11.1071 12.8929C10.9196 12.7054 10.6652 12.6 10.4 12.6C10.1348 12.6 9.88045 12.7054 9.69292 12.8929C9.50538 13.0804 9.40002 13.3348 9.40002 13.6C9.40002 13.8652 9.50538 14.1196 9.69292 14.3071C9.88045 14.4946 10.1348 14.6 10.4 14.6ZM13.6 14.6C13.8652 14.6 14.1196 14.4946 14.3071 14.3071C14.4947 14.1196 14.6 13.8652 14.6 13.6C14.6 13.3348 14.4947 13.0804 14.3071 12.8929C14.1196 12.7054 13.8652 12.6 13.6 12.6C13.3348 12.6 13.0805 12.7054 12.8929 12.8929C12.7054 13.0804 12.6 13.3348 12.6 13.6C12.6 13.8652 12.7054 14.1196 12.8929 14.3071C13.0805 14.4946 13.3348 14.6 13.6 14.6Z" fill="#2AB130" fill-opacity="0.8"/>
</svg>
