<svg width="16" height="16" viewBox="0 0 16 16" fill="none" xmlns="http://www.w3.org/2000/svg">
<path d="M4.79999 5.2C4.79999 5.09391 4.84214 4.99217 4.91715 4.91716C4.99217 4.84214 5.09391 4.8 5.19999 4.8H10.8C10.9061 4.8 11.0078 4.84214 11.0828 4.91716C11.1579 4.99217 11.2 5.09391 11.2 5.2C11.2 5.30609 11.1579 5.40783 11.0828 5.48284C11.0078 5.55786 10.9061 5.6 10.8 5.6H5.19999C5.09391 5.6 4.99217 5.55786 4.91715 5.48284C4.84214 5.40783 4.79999 5.30609 4.79999 5.2ZM5.19999 7.2C5.09391 7.2 4.99217 7.24214 4.91715 7.31716C4.84214 7.39217 4.79999 7.49392 4.79999 7.6C4.79999 7.70609 4.84214 7.80783 4.91715 7.88284C4.99217 7.95786 5.09391 8 5.19999 8H8.39999C8.50608 8 8.60782 7.95786 8.68284 7.88284C8.75785 7.80783 8.79999 7.70609 8.79999 7.6C8.79999 7.49392 8.75785 7.39217 8.68284 7.31716C8.60782 7.24214 8.50608 7.2 8.39999 7.2H5.19999ZM4.79999 10C4.79999 9.89392 4.84214 9.79217 4.91715 9.71716C4.99217 9.64214 5.09391 9.6 5.19999 9.6H10.8C10.9061 9.6 11.0078 9.64214 11.0828 9.71716C11.1579 9.79217 11.2 9.89392 11.2 10C11.2 10.1061 11.1579 10.2078 11.0828 10.2828C11.0078 10.3579 10.9061 10.4 10.8 10.4H5.19999C5.09391 10.4 4.99217 10.3579 4.91715 10.2828C4.84214 10.2078 4.79999 10.1061 4.79999 10ZM11.6 2.4C12.1304 2.4 12.6391 2.61072 13.0142 2.98579C13.3893 3.36086 13.6 3.86957 13.6 4.4V11.6C13.6 11.6672 13.5968 11.7344 13.5904 11.8C13.2858 11.8011 12.9865 11.8799 12.7208 12.0288C12.772 11.896 12.8 11.7512 12.8 11.6V4.4C12.8 4.08174 12.6736 3.77652 12.4485 3.55147C12.2235 3.32643 11.9183 3.2 11.6 3.2H4.39999C4.08173 3.2 3.77651 3.32643 3.55147 3.55147C3.32642 3.77652 3.19999 4.08174 3.19999 4.4V11.6C3.19999 11.9183 3.32642 12.2235 3.55147 12.4485C3.77651 12.6736 4.08173 12.8 4.39999 12.8H5.58719C5.46368 13.0486 5.3996 13.3224 5.39999 13.6H4.39999C3.86956 13.6 3.36085 13.3893 2.98578 13.0142C2.61071 12.6391 2.39999 12.1304 2.39999 11.6V4.4C2.39999 3.86957 2.61071 3.36086 2.98578 2.98579C3.36085 2.61072 3.86956 2.4 4.39999 2.4H11.6ZM8.19999 13.6C8.19999 13.8652 8.09464 14.1196 7.9071 14.3071C7.71956 14.4946 7.46521 14.6 7.19999 14.6C6.93478 14.6 6.68042 14.4946 6.49289 14.3071C6.30535 14.1196 6.19999 13.8652 6.19999 13.6C6.19999 13.3348 6.30535 13.0804 6.49289 12.8929C6.68042 12.7054 6.93478 12.6 7.19999 12.6C7.46521 12.6 7.71956 12.7054 7.9071 12.8929C8.09464 13.0804 8.19999 13.3348 8.19999 13.6ZM10.4 14.6C10.6652 14.6 10.9196 14.4946 11.1071 14.3071C11.2946 14.1196 11.4 13.8652 11.4 13.6C11.4 13.3348 11.2946 13.0804 11.1071 12.8929C10.9196 12.7054 10.6652 12.6 10.4 12.6C10.1348 12.6 9.88042 12.7054 9.69289 12.8929C9.50535 13.0804 9.39999 13.3348 9.39999 13.6C9.39999 13.8652 9.50535 14.1196 9.69289 14.3071C9.88042 14.4946 10.1348 14.6 10.4 14.6ZM13.6 14.6C13.8652 14.6 14.1196 14.4946 14.3071 14.3071C14.4946 14.1196 14.6 13.8652 14.6 13.6C14.6 13.3348 14.4946 13.0804 14.3071 12.8929C14.1196 12.7054 13.8652 12.6 13.6 12.6C13.3348 12.6 13.0804 12.7054 12.8929 12.8929C12.7053 13.0804 12.6 13.3348 12.6 13.6C12.6 13.8652 12.7053 14.1196 12.8929 14.3071C13.0804 14.4946 13.3348 14.6 13.6 14.6Z" fill="black" fill-opacity="0.8"/>
</svg>
